<svg width="380" height="81" viewBox="0 0 380 81" fill="none" xmlns="http://www.w3.org/2000/svg">
<path d="M380 40.3275C375.632 85.7664 294.934 80.8439 190 80.8439C85.0659 80.8439 0 85.7664 0 40.3275C0 -5.11147 85.0659 0.189744 190 0.189744C294.934 0.189744 375.632 -3.97549 380 40.3275Z" fill="#FEEEC2"/>
<path d="M97.72 26.72C98.68 27.2267 99.16 27.8667 99.16 28.64C99.16 29.12 98.9067 29.5733 98.4 30C97.8933 30.4 97.32 30.6933 96.68 30.88L96.2 30.92C92.76 31.1067 89.6133 31.36 86.76 31.68L84.52 40.64C86.4933 40.32 88.24 40.0933 89.76 39.96C91.28 39.8267 92.1867 39.7467 92.48 39.72L94.04 39.6C95.08 40.0533 95.6 40.6667 95.6 41.44C95.6 41.92 95.36 42.3867 94.88 42.84C94.4 43.2933 93.8533 43.6133 93.24 43.8L92.64 43.88C91.44 44.0133 90.32 44.12 89.28 44.2C86.56 44.44 84.6267 44.6533 83.48 44.84L81.56 52.56C81.4267 53.12 81.28 53.5333 81.12 53.8C80.9867 54.04 80.7333 54.2133 80.36 54.32C80.0133 54.4533 79.48 54.52 78.76 54.52C77.9333 54.52 77.32 54.3733 76.92 54.08C76.5467 53.8133 76.36 53.3467 76.36 52.68C76.36 52.3867 76.4 52.1067 76.48 51.84L81.96 30.2C82.2533 29.0267 82.56 28.2533 82.88 27.88C83.2267 27.48 83.84 27.28 84.72 27.28C85.6533 27.28 86.4133 27.4 87 27.64C90.92 27.1333 94.4933 26.8267 97.72 26.72ZM106.277 54.84C103.93 54.84 102.104 54.04 100.797 52.44C99.4902 50.84 98.8369 48.8 98.8369 46.32C98.8369 44.24 99.3302 42.28 100.317 40.44C101.33 38.6 102.704 37.12 104.437 36C106.17 34.88 108.077 34.32 110.157 34.32C112.21 34.32 113.89 35 115.197 36.36C116.53 37.6933 117.197 39.6667 117.197 42.28C117.197 44.12 116.69 46.0267 115.677 48C114.664 49.9733 113.304 51.6133 111.597 52.92C109.917 54.2 108.144 54.84 106.277 54.84ZM106.877 51.64C107.73 51.64 108.584 51.1067 109.437 50.04C110.317 48.9733 111.037 47.6267 111.597 46C112.157 44.3733 112.437 42.7867 112.437 41.24C112.437 38.8667 111.45 37.68 109.477 37.68C108.384 37.68 107.384 38.2 106.477 39.24C105.57 40.28 104.85 41.5733 104.317 43.12C103.784 44.64 103.517 46.0667 103.517 47.4C103.517 48.1733 103.69 48.8933 104.037 49.56C104.384 50.2 104.81 50.7067 105.317 51.08C105.85 51.4533 106.37 51.64 106.877 51.64ZM126.589 54.4C124.243 54.4 122.416 53.6 121.109 52C119.803 50.4 119.149 48.36 119.149 45.88C119.149 43.8 119.589 41.8933 120.469 40.16C121.376 38.4267 122.629 37.0667 124.229 36.08C125.856 35.0667 127.709 34.56 129.789 34.56C132.109 34.56 133.669 34.76 134.469 35.16C134.709 35.2667 134.923 35.44 135.109 35.68C135.296 35.8933 135.389 36.1067 135.389 36.32C135.389 36.5867 135.323 36.8667 135.189 37.16C135.083 37.4533 134.909 37.68 134.669 37.84C135.283 37.8933 135.803 38.2 136.229 38.76C136.656 39.2933 136.976 39.92 137.189 40.64C137.403 41.36 137.509 41.9867 137.509 42.52C137.509 44.4133 137.043 46.28 136.109 48.12C135.203 49.96 133.923 51.4667 132.269 52.64C130.616 53.8133 128.723 54.4 126.589 54.4ZM127.189 51.08C128.043 51.08 128.909 50.6667 129.789 49.84C130.696 48.9867 131.443 47.8667 132.029 46.48C132.616 45.0933 132.909 43.64 132.909 42.12C132.909 41.8267 132.803 41.56 132.589 41.32C132.403 41.08 132.136 40.8267 131.789 40.56C131.603 40.4267 131.429 40.2933 131.269 40.16C131.136 40 131.069 39.8533 131.069 39.72C131.069 39.6133 131.096 39.4667 131.149 39.28C131.229 39.0933 131.269 38.96 131.269 38.88C131.269 38.48 130.776 38.28 129.789 38.28C128.696 38.28 127.683 38.72 126.749 39.6C125.843 40.48 125.123 41.6 124.589 42.96C124.083 44.32 123.829 45.6533 123.829 46.96C123.829 47.7333 124.003 48.44 124.349 49.08C124.696 49.6933 125.123 50.1867 125.629 50.56C126.163 50.9067 126.683 51.08 127.189 51.08ZM156.902 24.36C157.009 23.96 157.315 23.64 157.822 23.4C158.355 23.1333 158.915 23 159.502 23C159.982 23 160.502 23.1067 161.062 23.32C161.622 23.5333 161.902 23.84 161.902 24.24L159.382 34.08C157.169 42.6933 155.875 47.9467 155.502 49.84C155.342 50.64 155.262 51.2533 155.262 51.68C155.262 52.4 155.342 53.1067 155.502 53.8C155.449 53.96 155.235 54.12 154.862 54.28C154.515 54.44 154.195 54.52 153.902 54.52C153.369 54.52 152.782 54.4533 152.142 54.32C151.502 54.1867 151.102 54.04 150.942 53.88C150.702 53.6667 150.582 53.24 150.582 52.6C150.582 52.12 150.635 51.6667 150.742 51.24C150.182 52.04 149.329 52.7067 148.182 53.24C147.062 53.7467 146.155 54 145.462 54C141.382 54 139.342 51.8 139.342 47.4C139.342 45.48 139.769 43.56 140.622 41.64C141.502 39.72 142.742 38.1333 144.342 36.88C145.969 35.6267 147.849 35 149.982 35C150.569 35 151.222 35.24 151.942 35.72C152.662 36.1733 153.249 36.6933 153.702 37.28C154.289 34.8 154.809 32.7333 155.262 31.08C155.475 30.2 155.715 29.2 155.982 28.08C156.275 26.9333 156.582 25.6933 156.902 24.36ZM152.822 41C152.662 40.4133 152.275 39.88 151.662 39.4C151.075 38.8933 150.595 38.64 150.222 38.64C148.995 38.64 147.849 39.04 146.782 39.84C145.715 40.64 144.862 41.68 144.222 42.96C143.609 44.24 143.302 45.56 143.302 46.92C143.302 47.9333 143.489 48.84 143.862 49.64C144.235 50.44 144.809 50.84 145.582 50.84C146.249 50.84 147.022 50.6267 147.902 50.2C148.809 49.7467 149.609 49.1733 150.302 48.48C150.995 47.76 151.422 47.0267 151.582 46.28L152.822 41ZM179.346 35.92C179.346 36.7467 179.64 37.3867 180.226 37.84C180.84 38.2667 181.773 38.7467 183.026 39.28L184.466 39.88L185.666 40.44C187.106 41.08 188.24 41.6667 189.066 42.2C189.92 42.7067 190.64 43.4133 191.226 44.32C191.813 45.2267 192.106 46.3867 192.106 47.8C192.106 49.32 191.6 50.64 190.586 51.76C189.6 52.8533 188.213 53.68 186.426 54.24C184.64 54.8267 182.56 55.12 180.186 55.12C178.426 55.12 176.773 54.84 175.226 54.28C173.706 53.7467 172.493 53.0667 171.586 52.24C170.706 51.4133 170.266 50.6 170.266 49.8C170.266 49.0267 170.6 48.4 171.266 47.92C171.933 47.4133 172.88 47.0667 174.106 46.88C174.24 47.6533 174.693 48.3467 175.466 48.96C176.24 49.5733 177.133 50.0667 178.146 50.44C179.186 50.7867 180.093 50.96 180.866 50.96C182.28 50.96 183.533 50.68 184.626 50.12C185.746 49.56 186.306 48.7867 186.306 47.8C186.306 46.9733 185.906 46.2933 185.106 45.76C184.333 45.2 183.16 44.6 181.586 43.96L179.466 43C177.733 42.1467 176.36 41.1867 175.346 40.12C174.333 39.0533 173.826 37.64 173.826 35.88C173.826 34.3067 174.253 32.9067 175.106 31.68C175.986 30.4267 177.253 29.4533 178.906 28.76C180.586 28.04 182.573 27.68 184.866 27.68C186.626 27.68 188.2 27.9467 189.586 28.48C190.973 29.0133 192.053 29.6933 192.826 30.52C193.6 31.3467 193.986 32.1733 193.986 33C193.986 33.7467 193.68 34.3467 193.066 34.8C192.48 35.2267 191.773 35.44 190.946 35.44C190.626 35.44 190.4 35.3733 190.266 35.24C190.133 35.08 190.04 34.92 189.986 34.76C189.933 34.5733 189.88 34.44 189.826 34.36C189.32 33.5067 188.64 32.88 187.786 32.48C186.96 32.0533 186.053 31.84 185.066 31.84C183.306 31.84 181.906 32.24 180.866 33.04C179.853 33.84 179.346 34.8 179.346 35.92ZM201.703 49.52C201.703 50.1333 201.81 50.56 202.023 50.8C202.237 51.04 202.637 51.16 203.223 51.16C203.997 51.16 204.637 51 205.143 50.68C205.677 50.3333 206.317 49.8 207.063 49.08C207.277 48.8667 207.517 48.76 207.783 48.76C208.103 48.76 208.357 49 208.543 49.48C208.73 49.9333 208.823 50.4 208.823 50.88C208.823 51.5467 208.557 52.2 208.023 52.84C207.49 53.48 206.717 54 205.703 54.4C204.69 54.8 203.503 55 202.143 55C200.33 55 199.037 54.5867 198.263 53.76C197.517 52.9333 197.143 51.6667 197.143 49.96C197.143 49.72 197.263 49.0933 197.503 48.08C197.743 47.0667 198.05 45.8533 198.423 44.44L199.543 39.88L197.103 40.08C196.783 40.08 196.543 39.96 196.383 39.72C196.223 39.48 196.143 39.1867 196.143 38.84C196.143 38.1733 196.383 37.5067 196.863 36.84C196.917 36.76 197.183 36.68 197.663 36.6C198.143 36.52 198.73 36.44 199.423 36.36L200.503 36.24L201.423 32.12C201.69 31.4267 202.09 30.8933 202.623 30.52C203.183 30.12 203.703 29.92 204.183 29.92C204.717 29.92 205.17 30.08 205.543 30.4C205.917 30.72 206.117 31.0933 206.143 31.52L205.143 35.8C206.183 35.6667 207.143 35.56 208.023 35.48C208.93 35.3733 209.637 35.32 210.143 35.32C211.157 35.32 211.663 35.9067 211.663 37.08C211.663 37.5333 211.463 37.9467 211.063 38.32C210.69 38.6667 210.277 38.88 209.823 38.96L204.223 39.52L201.703 49.52ZM229.284 53.32C229.124 53.8 228.698 54.12 228.004 54.28C227.338 54.4667 226.751 54.56 226.244 54.56C225.791 54.56 225.484 54.44 225.324 54.2C225.164 53.9867 225.031 53.6667 224.924 53.24C224.818 52.7867 224.738 52.4667 224.684 52.28C223.564 53.0533 222.404 53.64 221.204 54.04C220.031 54.4667 219.044 54.68 218.244 54.68C217.444 54.68 216.618 54.4933 215.764 54.12C214.938 53.7733 214.218 53.16 213.604 52.28C212.991 51.3733 212.684 50.1733 212.684 48.68C212.684 47.16 213.151 45.3333 214.084 43.2C215.044 41.04 216.404 39.1733 218.164 37.6C219.951 36 222.031 35.2 224.404 35.2C225.604 35.2 226.791 35.4933 227.964 36.08C229.138 36.64 230.098 37.36 230.844 38.24C231.591 39.0933 231.978 39.96 232.004 40.84L231.484 42.24C230.738 44.32 230.151 46.0933 229.724 47.56C229.298 49 229.084 50.2933 229.084 51.44C229.084 52.2133 229.151 52.84 229.284 53.32ZM224.724 48.92C224.964 48.2533 225.258 47.3867 225.604 46.32C226.191 44.2933 226.751 42.5867 227.284 41.2C227.178 40.8267 226.938 40.44 226.564 40.04C226.191 39.6133 225.804 39.2667 225.404 39C225.004 38.7067 224.724 38.56 224.564 38.56C223.578 38.56 222.524 39.16 221.404 40.36C220.284 41.5333 219.338 42.9333 218.564 44.56C217.818 46.1867 217.444 47.6 217.444 48.8C217.444 49.3333 217.604 49.84 217.924 50.32C218.244 50.7733 218.591 51 218.964 51C219.578 51 220.551 50.7733 221.884 50.32C223.244 49.84 224.191 49.3733 224.724 48.92ZM235.523 40.08C235.203 40.08 234.963 39.96 234.803 39.72C234.643 39.4533 234.563 39.12 234.563 38.72C234.563 38.16 234.776 37.5333 235.202 36.84C235.443 36.6 236.736 36.3467 239.083 36.08L240.803 28.32C240.989 27.4667 241.296 26.84 241.723 26.44C242.176 26.0133 242.669 25.8 243.203 25.8C243.843 25.8 244.416 26.0267 244.923 26.48C245.456 26.9333 245.736 27.4667 245.763 28.08C245.763 28.24 245.736 28.4533 245.683 28.72L243.963 35.6C245.723 35.4667 246.856 35.4 247.363 35.4C247.816 35.4 248.243 35.5067 248.643 35.72C249.069 35.9067 249.403 36.1333 249.643 36.4C249.883 36.6667 250.003 36.8933 250.003 37.08C250.003 37.5333 249.816 37.9467 249.443 38.32C249.096 38.6667 248.696 38.88 248.243 38.96L243.003 39.44L239.563 53.2C239.163 54.32 238.616 54.88 237.923 54.88C237.363 54.88 236.856 54.5333 236.403 53.84C235.976 53.1467 235.763 52.36 235.763 51.48C235.763 51.1333 235.803 50.7867 235.883 50.44L238.243 39.84L235.523 40.08ZM254.095 30.24C254.095 29.4133 254.349 28.68 254.855 28.04C255.389 27.4 256.122 27.08 257.055 27.08C258.042 27.08 258.895 27.3867 259.615 28C260.362 28.6133 260.735 29.3067 260.735 30.08C260.735 30.8533 260.362 31.52 259.615 32.08C258.869 32.64 258.002 32.92 257.015 32.92C256.055 32.92 255.322 32.68 254.815 32.2C254.335 31.6933 254.095 31.04 254.095 30.24ZM258.295 37.32C256.882 43.08 255.802 47.4133 255.055 50.32C254.949 50.7467 254.895 51.2133 254.895 51.72L254.935 52.84C254.935 53.2933 254.789 53.6133 254.495 53.8C254.229 53.9867 253.642 54.0933 252.735 54.12C251.855 54.12 251.189 54.0267 250.735 53.84C250.282 53.6533 250.055 53.2533 250.055 52.64C250.055 52.3467 250.389 50.7867 251.055 47.96C251.749 45.1333 252.682 41.4533 253.855 36.92L252.935 35.72C252.855 35.64 252.815 35.5467 252.815 35.44C252.815 35.1733 253.109 34.96 253.695 34.8C254.282 34.6133 255.095 34.52 256.135 34.52C257.042 34.52 257.615 34.7867 257.855 35.32C258.122 35.8267 258.269 36.4933 258.295 37.32ZM268.23 54.4C265.883 54.4 264.057 53.6 262.75 52C261.443 50.4 260.79 48.36 260.79 45.88C260.79 43.8 261.23 41.8933 262.11 40.16C263.017 38.4267 264.27 37.0667 265.87 36.08C267.497 35.0667 269.35 34.56 271.43 34.56C273.75 34.56 275.31 34.76 276.11 35.16C276.35 35.2667 276.563 35.44 276.75 35.68C276.937 35.8933 277.03 36.1067 277.03 36.32C277.03 36.5867 276.963 36.8667 276.83 37.16C276.723 37.4533 276.55 37.68 276.31 37.84C276.923 37.8933 277.443 38.2 277.87 38.76C278.297 39.2933 278.617 39.92 278.83 40.64C279.043 41.36 279.15 41.9867 279.15 42.52C279.15 44.4133 278.683 46.28 277.75 48.12C276.843 49.96 275.563 51.4667 273.91 52.64C272.257 53.8133 270.363 54.4 268.23 54.4ZM268.83 51.08C269.683 51.08 270.55 50.6667 271.43 49.84C272.337 48.9867 273.083 47.8667 273.67 46.48C274.257 45.0933 274.55 43.64 274.55 42.12C274.55 41.8267 274.443 41.56 274.23 41.32C274.043 41.08 273.777 40.8267 273.43 40.56C273.243 40.4267 273.07 40.2933 272.91 40.16C272.777 40 272.71 39.8533 272.71 39.72C272.71 39.6133 272.737 39.4667 272.79 39.28C272.87 39.0933 272.91 38.96 272.91 38.88C272.91 38.48 272.417 38.28 271.43 38.28C270.337 38.28 269.323 38.72 268.39 39.6C267.483 40.48 266.763 41.6 266.23 42.96C265.723 44.32 265.47 45.6533 265.47 46.96C265.47 47.7333 265.643 48.44 265.99 49.08C266.337 49.6933 266.763 50.1867 267.27 50.56C267.803 50.9067 268.323 51.08 268.83 51.08ZM283.383 35.72C283.303 35.64 283.263 35.5467 283.263 35.44C283.263 35.1733 283.556 34.96 284.143 34.8C284.729 34.6133 285.543 34.52 286.583 34.52C287.543 34.52 288.249 34.7733 288.703 35.28C289.156 35.76 289.423 36.3467 289.503 37.04L288.783 39.64C289.343 38.8667 290.129 38.1333 291.143 37.44C292.156 36.72 293.183 36.1467 294.223 35.72C295.263 35.2933 296.116 35.08 296.783 35.08C298.196 35.08 299.223 35.3467 299.863 35.88C300.503 36.3867 300.823 37.2 300.823 38.32C299.249 42.4267 298.209 46.8533 297.703 51.6L298.263 53.56C297.943 54.1733 297.489 54.6533 296.903 55C296.343 55.3733 295.516 55.56 294.423 55.56C293.783 55.56 293.316 55.3467 293.023 54.92C292.729 54.4933 292.583 53.96 292.583 53.32C292.583 51.5333 292.836 49.5733 293.343 47.44C293.876 45.28 294.489 43.08 295.183 40.84C295.449 39.9867 295.583 39.5467 295.583 39.52C295.583 39.1467 295.369 38.96 294.943 38.96C294.356 38.96 293.463 39.3733 292.263 40.2C291.089 41.0267 289.876 42.4267 288.623 44.4C287.369 46.3467 286.356 48.9067 285.583 52.08C285.529 52.24 285.463 52.5333 285.383 52.96C285.303 53.3867 285.089 53.6933 284.743 53.88C284.396 54.04 283.836 54.12 283.063 54.12C282.183 54.12 281.529 54.0267 281.103 53.84C280.703 53.6533 280.503 53.2533 280.503 52.64C280.583 52.2667 280.703 51.8133 280.863 51.28C282.409 45.0667 283.596 40.28 284.423 36.92L283.383 35.72Z" fill="#444444"/>
</svg>
